<?xml version="1.0" encoding="utf-8"?>
<!-- Generator: Adobe Illustrator 26.5.0, SVG Export Plug-In . SVG Version: 6.00 Build 0)  -->
<svg version="1.1"
	 id="svg55" xmlns:svg="http://www.w3.org/2000/svg" xmlns:sodipodi="http://sodipodi.sourceforge.net/DTD/sodipodi-0.dtd" xmlns:inkscape="http://www.inkscape.org/namespaces/inkscape"
	 xmlns="http://www.w3.org/2000/svg" xmlns:xlink="http://www.w3.org/1999/xlink" x="0px" y="0px" viewBox="0 0 500.2 103.9"
	 style="enable-background:new 0 0 500.2 103.9;" xml:space="preserve">
<style type="text/css">
	.st0{fill:none;stroke:#FFFFFF;stroke-linecap:round;stroke-linejoin:round;}
	.st1{fill:#FFFFFF;}
	.st2{font-family:'Garamond';}
	.st3{font-size:18.3375px;}
	.st4{fill:none;stroke:#000000;stroke-miterlimit:10;}
	.st5{font-family:'Garamond-Bold';}
	.st6{font-size:12.225px;}
	.st7{fill:none;stroke:#000000;stroke-linecap:round;stroke-linejoin:round;}
	.st8{fill:none;stroke:#000000;stroke-linecap:round;stroke-linejoin:round;stroke-miterlimit:10;}
</style>
<sodipodi:namedview  bordercolor="#666666" borderopacity="1.0" id="namedview57" inkscape:current-layer="svg55" inkscape:cx="257.70567" inkscape:cy="110.44529" inkscape:pagecheckerboard="0" inkscape:pageopacity="0.0" inkscape:pageshadow="2" inkscape:window-height="991" inkscape:window-maximized="1" inkscape:window-width="1920" inkscape:window-x="-9" inkscape:window-y="-9" inkscape:zoom="2.431068" pagecolor="#ffffff" showgrid="false">
	</sodipodi:namedview>
<g>
	<g>
		<line class="st0" x1="0.5" y1="21.5" x2="87.1" y2="21.5"/>
		<g>
			<path class="st1" d="M85.3,21.5l-2.2-3.6l0.1-0.1l5.9,2.3c2,0.5,4.1,0.9,6.1,1.4c-2,0.5-4.1,0.9-6.1,1.4l-5.9,2.3l-0.1-0.1
				L85.3,21.5z"/>
		</g>
	</g>
</g>
<text transform="matrix(1 0 0 1 -7.179260e-02 15.1597)"><tspan x="0" y="0" class="st2 st3">Reference</tspan><tspan x="15.8" y="22" class="st2 st3">Input</tspan></text>
<circle class="st4" cx="109.8" cy="21.5" r="14.6"/>
<line class="st4" x1="99.5" y1="11.2" x2="120.2" y2="31.8"/>
<line class="st4" x1="99.5" y1="31.8" x2="120.2" y2="11.2"/>
<text transform="matrix(1 0 0 1 97.31 25.2451)" class="st5 st6">+</text>
<text transform="matrix(1 0 0 1 107.8052 33.5874)" class="st5 st6">-</text>
<g>
	<g>
		<line class="st7" x1="124.4" y1="21.5" x2="182.3" y2="21.5"/>
		<g>
			<path d="M180.5,21.5l-2.2-3.6l0.1-0.1l5.9,2.3c2,0.5,4.1,0.9,6.1,1.4c-2,0.5-4.1,0.9-6.1,1.4l-5.9,2.3l-0.1-0.1L180.5,21.5z"/>
		</g>
	</g>
</g>
<text transform="matrix(1 0 0 1 128.4541 15.1602)" class="st2 st3">Error</text>
<path class="st8" d="M264.8,36.1h-67.5c-3.8,0-6.9-3.1-6.9-6.9V13.7c0-3.8,3.1-6.9,6.9-6.9h67.5c3.8,0,6.9,3.1,6.9,6.9v15.5
	C271.7,33,268.6,36.1,264.8,36.1z"/>
<text transform="matrix(1 0 0 1 193.8672 27.2134)" class="st2 st3">Controller</text>
<g>
	<g>
		<line class="st7" x1="271.7" y1="21.5" x2="347.6" y2="21.5"/>
		<g>
			<path d="M345.8,21.5l-2.2-3.6l0.1-0.1l5.9,2.3c2,0.5,4.1,0.9,6.1,1.4c-2,0.5-4.1,0.9-6.1,1.4l-5.9,2.3l-0.1-0.1L345.8,21.5z"/>
		</g>
	</g>
</g>
<text transform="matrix(1 0 0 1 277.4282 14.9365)"><tspan x="0" y="0" class="st2 st3">Control</tspan><tspan x="6.6" y="22" class="st2 st3">Signal</tspan></text>
<path class="st8" d="M412.9,36.1h-50.2c-3.8,0-6.9-3.1-6.9-6.9V13.7c0-3.8,3.1-6.9,6.9-6.9h50.2c3.8,0,6.9,3.1,6.9,6.9v15.5
	C419.8,33,416.7,36.1,412.9,36.1z"/>
<text transform="matrix(1 0 0 1 368.4189 27.2134)" class="st2 st3">Plant</text>
<g>
	<g>
		<line class="st7" x1="419.8" y1="21.5" x2="492" y2="21.5"/>
		<g>
			<path d="M490.2,21.5l-2.2-3.6l0.1-0.1l5.9,2.3c2,0.5,4.1,0.9,6.1,1.4c-2,0.5-4.1,0.9-6.1,1.4l-5.9,2.3l-0.1-0.1L490.2,21.5z"/>
		</g>
	</g>
</g>
<text transform="matrix(1 0 0 1 423.4951 14.936)" class="st2 st3">Output</text>
<path class="st8" d="M325.9,103.4h-67.5c-3.8,0-6.9-3.1-6.9-6.9V81c0-3.8,3.1-6.9,6.9-6.9h67.5c3.8,0,6.9,3.1,6.9,6.9v15.5
	C332.8,100.3,329.7,103.4,325.9,103.4z"/>
<text transform="matrix(1 0 0 1 269.2173 94.4888)" class="st2 st3">Sensor</text>
<g>
	<g>
		<path class="st7" d="M251.5,88.8H125.1c-8.4,0-15.3-6.8-15.3-15.3V45.1"/>
		<g>
			<path d="M109.8,46.9l-3.6,2.2l-0.1-0.1l2.3-5.9c0.5-2,0.9-4.1,1.4-6.1c0.5,2,0.9,4.1,1.4,6.1l2.3,5.9l-0.1,0.1L109.8,46.9z"/>
		</g>
	</g>
</g>
<g>
	<g>
		<path class="st7" d="M460,21.5v52c0,8.4-6.8,15.3-15.3,15.3H341"/>
		<g>
			<path d="M342.8,88.8l2.2,3.6l-0.1,0.1l-5.9-2.3c-2-0.5-4.1-0.9-6.1-1.4c2-0.5,4.1-0.9,6.1-1.4l5.9-2.3l0.1,0.1L342.8,88.8z"/>
		</g>
	</g>
</g>
</svg>
